<svg width="96" height="16" viewBox="0 0 96 16" fill="none" xmlns="http://www.w3.org/2000/svg">
<path d="M0.344927 13.2318L1.71828 11.8775C1.87935 11.7355 2.10275 11.7164 2.26382 11.8775C2.50628 12.1199 2.74874 12.3018 3.29427 12.3018C3.86059 12.3018 4.48579 11.777 4.48579 10.7656V1.24911C4.48579 1.04648 4.64685 0.864639 4.87026 0.864639H7.33641C7.55809 0.864639 7.72089 1.04648 7.72089 1.24911V10.7881C7.72089 13.5972 5.73965 15.213 3.37567 15.213C1.61784 15.213 0.648003 14.1618 0.303364 13.7375C0.202917 13.5747 0.223697 13.3738 0.344927 13.2318Z" fill="white"/>
<path d="M21.3996 1.24911C21.3996 1.04648 21.5606 0.864639 21.784 0.864639H30.1506C30.3723 0.864639 30.5351 1.04648 30.5351 1.24911V3.45203C30.5351 3.65465 30.374 3.8365 30.1506 3.8365H24.5515V6.34249H29.1582C29.3609 6.34249 29.5427 6.52433 29.5427 6.72696V8.92987C29.5427 9.15155 29.3609 9.31434 29.1582 9.31434H24.5515V12.042H30.1489C30.3706 12.042 30.5333 12.2239 30.5333 12.4265V14.6294C30.5333 14.832 30.3723 15.0139 30.1489 15.0139H21.7823C21.5606 15.0139 21.3978 14.832 21.3978 14.6294V1.24911H21.3996Z" fill="white"/>
<path d="M45.5696 3.83477H42.6792C42.4575 3.83477 42.2947 3.65292 42.2947 3.45029V1.24911C42.2947 1.04648 42.4558 0.864639 42.6792 0.864639H51.6519C51.8736 0.864639 52.0364 1.04648 52.0364 1.24911V3.45203C52.0364 3.65465 51.8753 3.8365 51.6519 3.8365H48.7614V14.6277C48.7614 14.8303 48.5796 15.0121 48.377 15.0121H45.9524C45.7498 15.0121 45.5679 14.8303 45.5679 14.6277V3.83477H45.5696Z" fill="white"/>
<path d="M69.2341 0.753799C73.2763 0.753799 76.5097 4.00795 76.5097 8.04836C76.5097 12.0905 73.2763 15.3031 69.2341 15.3031C65.192 15.3031 61.9794 12.0905 61.9794 8.04836C61.9794 4.00795 65.192 0.753799 69.2341 0.753799ZM69.2341 13.8899C72.4467 13.8899 75.0947 11.2627 75.0947 8.05009C75.0947 4.83751 72.4467 2.16872 69.2341 2.16872C66.0215 2.16872 63.3943 4.83577 63.3943 8.05009C63.3943 11.2627 66.0215 13.8899 69.2341 13.8899Z" fill="white"/>
<path d="M87.1791 12.9807C87.2796 12.8595 87.3817 12.7174 87.4822 12.5962C87.6848 12.333 87.9065 12.1719 88.1888 12.4144C88.3308 12.5356 89.8046 13.9505 91.604 13.9505C93.2406 13.9505 94.3126 12.9201 94.3126 11.7286C94.3126 10.3344 93.1003 9.50659 90.7762 8.53502C88.5542 7.56518 87.219 6.65596 87.219 4.35259C87.219 2.97924 88.31 0.755539 91.5226 0.755539C93.5021 0.755539 94.9776 1.78599 94.9776 1.78599C95.0989 1.84661 95.3413 2.08906 95.0989 2.47354C95.0175 2.59477 94.9378 2.73678 94.8564 2.85801C94.6746 3.1403 94.4719 3.22169 94.1498 3.03985C94.0078 2.95845 92.7349 2.10985 91.5018 2.10985C89.3595 2.10985 88.7135 3.48321 88.7135 4.33181C88.7135 5.68612 89.744 6.47411 91.4412 7.18071C94.1689 8.29256 95.9267 9.32301 95.9267 11.6662C95.9267 13.7669 93.9264 15.3031 91.5624 15.3031C89.1777 15.3031 87.5619 13.909 87.2986 13.6665C87.1393 13.5262 86.9367 13.3652 87.1791 12.9807Z" fill="white"/>
</svg>
